<?xml version="1.0" encoding="UTF-8"?>
<svg id="Layer_1" xmlns="http://www.w3.org/2000/svg" viewBox="0 0 72 72">
  <defs>
    <style>
      .cls-1 {
        fill: #f4dbbd;
      }
    </style>
  </defs>
  <path class="cls-1" d="M63.66,19.57v32.86c0,.61-.17,1.19-.46,1.71,0,0-1.12-.66-1.99-.91-.66-.19-1.17-2.27-1.38-2.47-2.72-2.41-3.42-2.11-3.89-3.24-.28-.68-1.94-1.87-2.46-2.4-.65-.65-2.07-1.24-2.9-1.8-1.2-.81-.8-2.17-1.21-2.68s-.4-.57-1.23-.66c-.69-.07-2.2-3.13-2.2-3.13.93-1.25,1.39-3.11,2.45-3.71,1.62-.91,3.55-4.2,5.2-5.06.98-.52,4.04-5.19,5.23-5.28,1.58-.12,3.94-3.93,4.46-4.8.25.48.39,1.01.39,1.55Z"/>
  <path class="cls-1" d="M29.29,35.57c.23,1.06,1.3,2.6,2.11,2.72,1.35.19,3.34,2.23,3.34,2.23.53.53.65.65,1.7.86.43.09,1.09-.53,1.42-.86,0,0,3.41-3.47,4.97-3.83,2.24-.51,2.51-3.98,4.04-4.85,1.61-.92,3.55-4.2,5.19-5.06.98-.52,4.04-5.19,5.23-5.28,1.78-.13,4.56-4.98,4.56-4.98-.52-.29-1.11-.47-1.71-.47H12.1c-.51,0-1.01.13-1.47.35,0,0,2.07,2.41,3.98,3.69,1.32.88,2.55,5.36,4.95,5.97,1.46.37,6.51,5.78,8.81,8.08.3.3.83.97.93,1.43Z"/>
  <path class="cls-1" d="M61.23,55.63c-3.53.78-3.32,2.78-5.55,3.69-2.29.93-6.57-2.41-7.83-2.56-3.12-.35-3.69.48-5.74.32-1.76-.14-7.11-1.94-9.66-1.51-1.49.26-1.11,2.05-10.11,1.09-1.77-.19-3.65,2.58-6.37,1.05-1.73-.98-2.65-2.02-5.19-2.03.51-.34,1.33-.92,1.56-1.3.29-.47,2.51-2.57,5.04-3.91.67-.36.85-2.08,1.39-2.62.27-.27,3.37-3.36,3.7-3.55,1.1-.66,2.87-1.39,3.79-2.98.28-.5.19-1.3.55-1.75.29-.37,1.2-1.23,1.5-1.51.15.23.4.64.57.95.47.83,2.06,1.4,2.4,1.5,1.11.33,2.2,1.76,2.42,1.91.07.05.61.34,1.05.51.78.28.92.3,1.23.37.23.04.43.09.91.04.15-.02.71-.14.83-.21.19-.11,1.18-.83,1.38-1.02,0,0,1.5-1.68,1.77-1.92,1.62-1.45,2.15-1.43,3.37-1.98,0,0,1.77,3.5,2.46,3.58.84.09.83.16,1.24.66s.21,1.3,1.1,2.17c.75.72,2.46,1.41,3.11,2.06.52.53,2.08,1.96,2.36,2.64.47,1.12,1.17.83,3.89,3.24.22.19.73,2.27,1.39,2.46.48.14,1.03.4,1.44.61Z"/>
  <path class="cls-1" d="M9.18,17.65c-.37.57-.6,1.23-.6,1.93v32.85c0,.7.22,1.36.6,1.93,0,0,1.64-1,1.99-1.57.29-.48,2.51-2.57,5.04-3.91.67-.36.84-2.08,1.38-2.62.27-.27,3.37-3.36,3.7-3.55,1.11-.66,2.87-1.38,3.79-2.98.29-.5.2-1.3.55-1.75s1.61-1.6,1.61-1.6c0,0-.59-1.1-1.09-1.56-1.8-1.66-6.67-6.66-7.36-6.8-1.62-.33-3.8-3.66-4.13-4.58-.53-1.44-1.45-1.79-2.54-2.71-1.65-1.4-2.95-3.07-2.95-3.07Z"/>
</svg>