<?xml version="1.0" encoding="UTF-8"?>
<svg id="Layer_1" xmlns="http://www.w3.org/2000/svg" viewBox="0 0 72 72">
  <defs>
    <style>
      .cls-1 {
        fill: #f4dbbd;
      }
    </style>
  </defs>
  <path class="cls-1" d="M59.38,8.57H12.62c-2.24,0-4.05,1.81-4.05,4.05v46.75c0,2.24.89,3.15,3,3.91,2.39.86,3.64.48,8.41,2.36,1.99.78,6.24-.97,8.33-1.46,3.59-.84,7.44.92,10.48.23,3.3-.74,8.69,2.91,12.76,1.14,2.62-1.14,5.81-1.94,7.82-2.13,2.23-.21,4.05-1.81,4.05-4.05V12.62c0-2.24-1.81-4.05-4.05-4.05ZM24.92,55.3s-.99.86-2.14.46c-1.29-.45-1.61-.58-2.55.06-.34.23-1.2.72-1.92.27-1.15-.72-1.64-.79-1.64-.79v-26.2h8.25v26.2ZM20.8,25.23c-1.31.17-2.15,1.67-3.16.49-1.15-1.34-1.59-3.11-1.59-4.97,0-2.73,2.13-4.74,4.75-4.74s4.75,2,4.75,4.74c0,2.05-.1,4.1-2.26,4.72-1.45.42-1.85-.32-2.5-.24ZM55.32,55.32s0,.95-3.17.78c-.59-.03-2.13.38-3.49.51-1.02.1-1.58-1.29-1.58-1.29v-14.31c0-2.27-.39-4.18-1.23-5.01-.72-.72-2.18.87-3.25.87-.87,0-1.87-.81-2.62-.34-1.37.85-1.86,2.14-1.86,4.59v14.2s-.35,1.83-2.12,1.29c-2.23-.68-3.27.24-4.45-.26-1.25-.52-1.68-1.04-1.68-1.04v-26.2h7.93v3.63h.11c.8-1.61,3.58-4.37,7.84-4.37,4.6,0,9.57,2.73,9.57,10.73v16.2Z"/>
</svg>