<?xml version="1.0" encoding="UTF-8"?>
<svg id="Layer_1" xmlns="http://www.w3.org/2000/svg" viewBox="0 0 72 72">
  <defs>
    <style>
      .cls-1 {
        fill: #f4dbbd;
      }
    </style>
  </defs>
  <path class="cls-1" d="M36.01,62.53c-1.35,0-3.24.28-4.01.27-1.15-.02-2.33-.64-3.42-.8-1.55-.23-3.55-.51-4.53-.63-1.53-.19-6.27-3.06-6.27-5.29,0-3.62,6.7-5.59,12.97-6.22.31-.03.62.09.82.34,1.41,1.69,2.71,3.18,3.66,4.26.29.33.54.62.78.89.23-.27.49-.56.78-.89.95-1.08,2.25-2.57,3.66-4.26.2-.24.51-.36.82-.34,6.26.63,12.95,2.6,12.95,6.22,0,1.09-.42,2.71-1.51,3.53-.36.27-.98-.14-1.44.11-1.58.84-4.78,2.1-5.71,2.57-2.17,1.12-1.95.26-9.56.24ZM30.44,51.79c-6.75.75-10.77,2.75-10.77,4.28,0,1.91,6.21,4.57,16.33,4.57s16.32-2.66,16.32-4.57c0-1.54-4.01-3.53-10.76-4.28-1.3,1.55-2.48,2.9-3.37,3.91-.63.72-1.14,1.3-1.47,1.7-.36.44-1.1.44-1.46,0-.33-.4-.83-.97-1.47-1.69-.88-1.01-2.07-2.36-3.37-3.91Z"/>
  <path class="cls-1" d="M36.01,7.78c-10.58,0-19.18,8.33-19.18,18.57,0,2.28.91,5.58,1.67,8.62.72,2.87,2.33,3.7,3.94,6.23,1.21,1.91,3.4,6.95,4.29,7.37,1.52.7,2.14,1.46,3.38,2.93.99,1.19,1.02,2.08,2.3,3.03s.99,1.84,1.28,2.17c.63.72.5,1.16.98,1.35.84.32,1.05-.22,1.33-.22s.55-.13.73-.34c.33-.4.6-.7,1.23-1.43.49-.56,1.54-.26,1.92-1.59.26-.91,2.59-3.34,3.29-4.18.97-1.16,1.3.1,1.95-1.15,1.33-2.56,4.19-5.42,4.72-7.18,2.06-6.82,5.33-11.54,5.33-15.61,0-10.24-8.6-18.57-19.17-18.57ZM36.4,31.46c-1.67-.23-1.58,1.08-3.17.71-.98-.23-1.37,2.13-3.28.4-1.07-.96-1.71-6.52-1.71-8.06,0-4.28,3.48-7.75,7.75-7.75s7.75,3.48,7.75,7.75c0,2.28-.75,10.02-3.46,10.3-1.88.19-1.22-2.99-3.89-3.35Z"/>
</svg>