<?xml version="1.0" encoding="UTF-8"?>
<svg id="Layer_1" xmlns="http://www.w3.org/2000/svg" viewBox="0 0 72 72">
  <defs>
    <style>
      .cls-1 {
        fill: #f4dbbd;
      }
    </style>
  </defs>
  <path class="cls-1" d="M63.51,51.35c-.3-1.79-1.52-3.34-3.72-4.75-.27-.18-4.3-2.86-6.97-3.98-3.78-1.59-5.86.49-6.75,1.38l-2.44,2.41c-1.29,1.1-3.51.4-4.92-.92l-6.05-5.68-5.99-6.36c-1.32-1.41-2.48-4.27-.97-4.87.35-.14,1.09.11,1.52-.02.4-.13,1.34-1.02,1.53-1.79.3-1.22,2.38-3.64.79-7.43-1.14-2.71-3.87-6.81-3.98-6.96-1.41-2.21-2.97-3.43-4.75-3.73-2.57-.43-5.07,1.24-7,2.78-.14.12-3.35,2.99-4.49,6.41-1.21,3.65-1.44,10.8.88,14.34,3,4.57,3.92,2.91,5.78,5.7,1.81,2.72,5.55,10.59,7.66,10.66,1.42.04,3.14.99,3.23,1.08,1.98,1.99,3.08,7.8,7.97,8.35,1.7.19,3.51.46,4.98,2.36,1.56,2.02,2.89,1.2,4.31,1.76,2.15.84,4.32,1.71,6.58,2.09,1.26.21,2.68-1.03,3.9-1.43,1.56-.52,1.74.4,2.36-.36,1.34-1.66,1.29-.14,3.7-2.9.53-.66,1.18-2.57,1.65-3.37.87-1.46,1.48-3.1,1.2-4.77Z"/>
</svg>